<!--?xml version="1.0" encoding="UTF-8" standalone="no" ?-->

<svg xmlns="http://www.w3.org/2000/svg" xmlns:xlink="http://www.w3.org/1999/xlink" version="1.1" width="1080" height="1080" viewBox="0 0 1080 1080" xml:space="preserve">
<desc>Created with Fabric.js 5.2.4</desc>
<defs>
</defs>
<g transform="matrix(1 0 0 1 540 540)" id="88de182b-875c-43b8-bccd-a27a230a01d3">
<rect style="stroke: none; stroke-width: 1; stroke-dasharray: none; stroke-linecap: butt; stroke-dashoffset: 0; stroke-linejoin: miter; stroke-miterlimit: 4; fill: rgb(156, 78, 255); fill-rule: nonzero; opacity: 1; visibility: hidden;" vector-effect="non-scaling-stroke" x="-540" y="-540" rx="0" ry="0" width="1080" height="1080"></rect>
</g>
<g transform="matrix(1 0 0 1 540 540)" id="182b5ab8-7bcc-475f-a833-d769e0181812">
</g>
<g transform="matrix(1 0 0 1 540 540)" id="7139350a-9235-4454-bce0-e15477a13464">
<path style="stroke: rgb(0, 0, 0); stroke-width: 0; stroke-dasharray: none; stroke-linecap: butt; stroke-dashoffset: 0; stroke-linejoin: miter; stroke-miterlimit: 4; fill: rgb(156, 78, 255); fill-rule: nonzero; opacity: 1;" vector-effect="non-scaling-stroke" transform=" translate(-480.5, 477)" d="M 294 -242 L 70 -466 L 113 -509 L 294 -328 L 337 -285 L 294 -242 Z M 464 -242 L 240 -466 L 283 -509 L 464 -328 L 848 -712 L 891 -669 L 464 -242 Z M 464 -412 L 421 -455 L 678 -712 L 721 -669 L 464 -412 Z" stroke-linecap="round"></path>
</g>
</svg>